<?xml version="1.0" encoding="UTF-8"?>
<svg width="120px" height="60px" viewBox="0 0 1324 432" version="1.1" xmlns="http://www.w3.org/2000/svg" xmlns:xlink="http://www.w3.org/1999/xlink">
    <!-- Generator: Sketch 60.1 (88133) - https://sketch.com -->
    <title>Group 6</title>
    <desc>Created with Sketch.</desc>
    <g id="Page-1" stroke="none" stroke-width="1" fill="none" fill-rule="evenodd">
        <g id="FINAL" transform="translate(-992.000000, -227.000000)" fill="#ffffff" fill-rule="nonzero">
            <g id="Group-6" transform="translate(992.000000, 227.000000)">
                <g id="Group">
                    <g id="Group-3" transform="translate(436.514514, 0.000000)">
                        <g id="Group-3-Copy-2">
                            <path d="M10.4173064,-4.26325641e-14 C6.71348394,-0.0521867092 3.26801736,1.89525544 1.40057887,5.09748779 C-0.466859622,8.29972014 -0.466859622,12.2604697 1.40057887,15.462702 C3.26801736,18.6649344 6.71348394,20.6123765 10.4173064,20.559125 C118.293554,20.559125 205.524297,107.87722 205.524278,215.861377 C205.524297,323.845535 118.293554,411.16363 10.4173064,411.16363 C6.71348394,411.110378 3.26801736,413.05782 1.40057887,416.260053 C-0.466859622,419.462285 -0.466859622,423.423034 1.40057887,426.625267 C3.26801736,429.827499 6.71348394,431.774941 10.4173064,431.722755 C129.392869,431.722755 226.061868,334.956052 226.061868,215.861377 C226.061868,96.7667023 129.392869,-4.26325641e-14 10.4173064,-4.26325641e-14 L10.4173064,-4.26325641e-14 Z" id="Path" transform="translate(113.030934, 215.861377) scale(-1, 1) translate(-113.030934, -215.861377) "></path>
                            <path d="M431.289125,215.860989 C431.289125,221.537908 426.691581,226.139922 421.020335,226.139922 C415.34909,226.139922 410.751546,221.537908 410.751546,215.860989 C410.751546,213.134801 411.833408,210.520264 413.759182,208.592552 C415.684955,206.66484 418.296872,205.581862 421.020335,205.581862 C423.743799,205.581862 426.355716,206.66484 428.281489,208.592552 C430.207262,210.520264 431.289125,213.134801 431.289125,215.860989 L431.289125,215.860989 Z" id="Path" transform="translate(421.020335, 215.860892) scale(-1, 1) translate(-421.020335, -215.860892) "></path>
                            <path d="M279.064572,17.2696666 C279.065255,19.9933134 277.983003,22.6051357 276.055902,24.5305578 C274.1288,26.4559799 271.514708,27.5372796 268.788701,27.5365818 C263.11216,27.5350911 258.509303,22.9361568 258.507888,17.2645297 C258.506476,11.5929101 263.10703,6.99628748 268.783564,6.99763388 C271.509568,6.9982984 274.124198,8.08090207 276.052262,10.0072833 C277.980327,11.9336646 279.063887,14.5460232 279.064572,17.2696666 L279.064572,17.2696666 Z" id="Path" transform="translate(268.786230, 17.267108) scale(-1, 1) rotate(75.000000) translate(-268.786230, -17.267108) "></path>
                            <path d="M328.599896,37.8111157 C328.602388,43.483804 324.003505,48.0804739 318.327979,48.0780897 C315.602461,48.0769259 312.988099,46.9936352 311.060032,45.066532 C309.131966,43.1394287 308.048134,40.5263738 308.04697,37.8022183 C308.045774,35.0780627 309.127343,32.4659452 311.053741,30.5405106 C312.980139,28.6150759 315.593563,27.5340483 318.319081,27.5352442 C323.994607,27.537774 328.597474,32.1384274 328.599896,37.8111157 Z" id="Path" transform="translate(318.323433, 37.806667) scale(-1, 1) rotate(60.000000) translate(-318.323433, -37.806667) "></path>
                            <path d="M371.135828,70.4852778 C371.1387,76.1593847 366.541275,80.7568964 360.867168,80.7541325 C358.142331,80.7527858 355.52855,79.6690495 353.600836,77.7413355 C351.673122,75.8136215 350.589386,73.1998407 350.588039,70.475004 C350.585275,64.8008972 355.182786,60.2034724 360.856894,60.2063435 C366.530925,60.2092537 371.132919,64.8112468 371.135828,70.4852778 L371.135828,70.4852778 Z" id="Path" transform="translate(360.861934, 70.480238) scale(-1, 1) rotate(45.000000) translate(-360.861934, -70.480238) "></path>
                            <path d="M403.774075,113.065738 C403.776567,118.741263 399.179984,123.340233 393.507295,123.337849 C390.783139,123.336685 388.170084,122.252853 386.242981,120.324787 C384.315877,118.39672 383.232587,115.782359 383.231423,113.056841 C383.230227,110.331323 384.311255,107.717899 386.236689,105.791501 C388.162124,103.865103 390.774242,102.783534 393.498397,102.78473 C399.171086,102.78726 403.771653,107.390213 403.774075,113.065738 Z" id="Path" transform="translate(393.502749, 113.061289) scale(-1, 1) rotate(30.000000) translate(-393.502749, -113.061289) "></path>
                            <path d="M424.291108,162.650736 C424.291806,165.376739 423.21051,167.990828 421.285092,169.917929 C419.359674,171.84503 416.747856,172.927284 414.024213,172.926607 C411.300565,172.925927 408.688202,171.842368 406.761816,169.914303 C404.835431,167.986238 403.752825,165.371605 403.75216,162.645599 C403.751462,159.919592 404.832762,157.305501 406.758184,155.378399 C408.683606,153.451298 411.295429,152.369046 414.019076,152.369728 C416.742719,152.370413 419.355078,153.453974 421.281459,155.382038 C423.207841,157.310103 424.290444,159.924733 424.291108,162.650736 L424.291108,162.650736 Z" id="Path" transform="translate(414.021634, 162.648167) scale(-1, 1) rotate(15.000000) translate(-414.021634, -162.648167) "></path>
                            <path d="M424.291283,269.07114 C424.290619,271.797147 423.208013,274.41178 421.281628,276.339845 C419.355242,278.26791 416.742878,279.351468 414.019231,279.352148 C411.295588,279.352825 408.68377,278.270571 406.758352,276.34347 C404.832934,274.416369 403.751637,271.80228 403.752336,269.076277 C403.753826,263.399744 408.352748,258.79689 414.024368,258.795464 C419.695996,258.794042 424.292631,263.394599 424.291283,269.07114 Z" id="Path" transform="translate(414.021810, 269.073806) scale(-1, 1) rotate(-15.000000) translate(-414.021810, -269.073806) "></path>
                            <path d="M403.774343,318.65626 C403.771814,324.33171 399.171279,328.934545 393.498666,328.937074 C387.825977,328.939566 383.229307,324.340683 383.231692,318.665158 C383.232855,315.93964 384.316146,313.325278 386.243249,311.397212 C388.170352,309.469145 390.783407,308.385313 393.507563,308.384149 C399.180252,308.381765 403.776835,312.980735 403.774343,318.65626 L403.774343,318.65626 Z" id="Path" transform="translate(393.503017, 318.660612) scale(-1, 1) rotate(-30.000000) translate(-393.503017, -318.660612) "></path>
                            <path d="M371.136131,361.236653 C371.133222,366.910759 366.53111,371.512784 360.857003,371.515587 C355.182895,371.518458 350.585383,366.921033 350.588148,361.246927 C350.589494,358.52209 351.67323,355.908309 353.600944,353.980595 C355.528658,352.052881 358.142439,350.969145 360.867276,350.967798 C363.592113,350.96642 366.204812,352.047543 368.130599,353.97333 C370.056387,355.899118 371.137509,358.511816 371.136131,361.236653 Z" id="Path" transform="translate(360.862140, 361.241693) scale(-1, 1) rotate(-45.000000) translate(-360.862140, -361.241693) "></path>
                            <path d="M328.600025,393.910989 C328.597496,399.583602 323.994661,404.184137 318.319211,404.186667 C312.643685,404.189158 308.044715,399.592575 308.0471,393.919887 C308.048263,391.195731 309.132095,388.582676 311.060162,386.655573 C312.988228,384.72847 315.60259,383.645179 318.328108,383.644015 C324.003634,383.641631 328.602517,388.238301 328.600025,393.910989 L328.600025,393.910989 Z" id="Path" transform="translate(318.323563, 393.915341) scale(-1, 1) rotate(-60.000000) translate(-318.323563, -393.915341) "></path>
                            <path d="M279.064775,414.452231 C279.064091,417.175875 277.98053,419.788233 276.052465,421.714614 C274.124401,423.640996 271.509771,424.723599 268.783768,424.724264 C266.057764,424.724962 263.443675,423.643665 261.516574,421.718247 C259.589473,419.792829 258.507219,417.181012 258.507897,414.457368 C258.508576,411.733721 259.592135,409.121358 261.5202,407.194972 C263.448265,405.268587 266.062898,404.185981 268.788904,404.185316 C271.514911,404.184618 274.129003,405.265918 276.056105,407.19134 C277.983206,409.116762 279.065458,411.728584 279.064775,414.452231 Z" id="Path" transform="translate(268.786336, 414.454790) scale(-1, 1) rotate(-75.000000) translate(-268.786336, -414.454790) "></path>
                        </g>
                        <path d="M138.129694,298.432653 C179.647936,298.432653 203.977097,271.190204 203.977097,241.567347 C203.977097,210.093061 180.176831,190.256327 154.260985,189.198367 L198.688149,152.169796 L198.688149,122.811429 L77.3067909,122.811429 L77.3067909,154.285714 L152.409854,154.285714 L107.453795,192.901224 L123.585087,218.292245 C127.28735,216.969796 131.782956,215.647347 139.187483,215.647347 C155.583222,215.647347 167.218908,224.90449 167.218908,241.038367 C167.218908,255.320816 156.376565,266.958367 138.129694,266.958367 C120.14727,266.958367 107.718242,254.262857 106.9249,236.806531 L71.7533955,243.683265 C73.8689747,272.512653 98.1981358,298.432653 138.129694,298.432653 Z M293.889214,298.697143 C320.598402,298.697143 339.10972,286.795102 350.216511,269.867755 C361.852197,252.146939 365.554461,230.723265 365.554461,208.770612 C365.554461,186.817959 361.852197,165.394286 350.216511,147.673469 C339.10972,130.746122 320.598402,118.844082 293.889214,118.844082 C267.180027,118.844082 248.668708,130.746122 237.29747,147.673469 C225.661784,165.394286 222.223968,186.817959 222.223968,208.770612 C222.223968,230.723265 225.661784,252.146939 237.29747,269.867755 C248.668708,286.795102 267.180027,298.697143 293.889214,298.697143 Z M293.889214,266.429388 C281.460186,266.429388 273.262317,260.875102 267.973369,252.411429 C261.362184,242.096327 258.71771,226.755918 258.71771,208.770612 C258.71771,190.785306 261.362184,175.444898 267.973369,165.129796 C273.262317,156.666122 281.460186,151.111837 293.889214,151.111837 C306.58269,151.111837 314.251664,156.666122 319.540613,165.129796 C326.416245,175.444898 329.060719,190.785306 329.060719,208.770612 C329.060719,226.755918 326.416245,242.096327 319.540613,252.411429 C314.251664,260.875102 306.58269,266.429388 293.889214,266.429388 Z" id="30"></path>
                    </g>
                    <path d="M63.2029294,348.685714 C112.125699,348.685714 131.43036,316.153469 131.43036,280.447347 L131.43036,164.336327 L97.5810919,164.336327 L97.5810919,179.676735 C93.085486,170.948571 81.1853529,161.955918 60.5584554,161.955918 C24.8580559,161.955918 4.54747351e-13,191.049796 4.54747351e-13,225.433469 C4.54747351e-13,261.933061 25.9158455,288.646531 60.5584554,288.646531 C79.334221,288.646531 91.4988016,280.447347 96.7877497,271.983673 L96.7877497,281.505306 C96.7877497,306.631837 84.3587217,317.740408 62.1451398,317.740408 C45.4849534,317.740408 34.113715,307.425306 31.7336884,293.142857 L4.54747351e-13,301.606531 C3.70226365,326.468571 27.50253,348.685714 63.2029294,348.685714 Z M66.6407457,258.494694 C48.3938748,258.494694 35.4359521,245.799184 35.4359521,225.433469 C35.4359521,205.332245 49.187217,192.636735 66.6407457,192.636735 C83.5653795,192.636735 97.3166445,205.332245 97.3166445,225.433469 C97.3166445,245.534694 84.6231691,258.494694 66.6407457,258.494694 Z M224.515846,298.432653 C256.513981,298.432653 277.140879,279.653878 283.752064,257.172245 L254.398402,248.444082 C250.167244,260.081633 241.176032,268.280816 224.780293,268.280816 C207.326764,268.280816 192.782157,255.849796 191.988815,238.657959 L285.074301,238.657959 C285.074301,238.12898 285.603196,232.839184 285.603196,227.813878 C285.603196,186.02449 261.538482,160.36898 221.342477,160.36898 C188.022104,160.36898 157.346205,187.346939 157.346205,228.871837 C157.346205,272.777143 188.815446,298.432653 224.515846,298.432653 Z M250.960586,214.589388 L192.782157,214.589388 C193.575499,202.687347 203.624501,188.933878 221.871372,188.933878 C241.969374,188.933878 250.431691,201.629388 250.960586,214.589388 Z M363.086285,296.316735 C373.399734,296.316735 379.746471,294.465306 382.91984,293.142857 L382.91984,264.04898 C381.068708,264.577959 376.308655,265.106939 372.077497,265.106939 C362.028495,265.106939 356.739547,261.404082 356.739547,250.03102 L356.739547,195.546122 L382.91984,195.546122 L382.91984,164.336327 L356.739547,164.336327 L356.739547,125.456327 L325.005859,125.456327 L325.005859,143.706122 C325.005859,155.343673 318.659121,164.336327 304.907856,164.336327 L298.296671,164.336327 L298.296671,195.546122 L321.83249,195.546122 L321.83249,256.114286 C321.83249,281.240816 337.699334,296.316735 363.086285,296.316735 Z" id="get"></path>
                    <path d="M979.689481,298.432653 C1013.8032,298.432653 1030.19893,276.74449 1030.19893,255.585306 C1030.19893,236.542041 1017.24101,220.937143 991.589614,215.647347 L973.078296,211.68 C965.938216,210.357551 961.178162,206.390204 961.178162,200.042449 C961.178162,192.636735 968.58269,187.082449 977.838349,187.082449 C992.647403,187.082449 998.200799,196.868571 999.258589,204.538776 L1028.61225,197.926531 C1027.02557,183.908571 1014.59654,160.36898 977.573901,160.36898 C949.542477,160.36898 928.915579,179.676735 928.915579,202.951837 C928.915579,221.201633 940.286818,236.277551 965.409321,241.831837 L982.598402,245.799184 C992.647403,247.915102 996.614115,252.675918 996.614115,258.494694 C996.614115,265.371429 991.060719,271.454694 979.425033,271.454694 C964.087084,271.454694 956.418109,261.933061 955.624767,251.617959 L925.477763,258.230204 C927.064447,273.041633 940.551265,298.432653 979.689481,298.432653 Z M1115.351,298.432653 C1147.34913,298.432653 1167.97603,279.653878 1174.58722,257.172245 L1145.23356,248.444082 C1141.0024,260.081633 1132.01119,268.280816 1115.61545,268.280816 C1098.16192,268.280816 1083.61731,255.849796 1082.82397,238.657959 L1175.90945,238.657959 C1175.90945,238.12898 1176.43835,232.839184 1176.43835,227.813878 C1176.43835,186.02449 1152.37364,160.36898 1112.17763,160.36898 C1078.85726,160.36898 1048.18136,187.346939 1048.18136,228.871837 C1048.18136,272.777143 1079.6506,298.432653 1115.351,298.432653 Z M1141.79574,214.589388 L1083.61731,214.589388 C1084.41065,202.687347 1094.45965,188.933878 1112.70652,188.933878 C1132.80453,188.933878 1141.26684,201.629388 1141.79574,214.589388 Z M1262.91265,298.432653 C1297.55526,298.432653 1317.91771,276.21551 1323.73555,254.527347 L1292.79521,244.212245 C1289.88628,254.262857 1280.89507,266.164898 1262.91265,266.164898 C1244.93023,266.164898 1229.59228,252.940408 1229.59228,229.400816 C1229.59228,205.861224 1244.66578,192.901224 1262.6482,192.901224 C1280.10173,192.901224 1288.2996,204.009796 1291.47297,214.853878 L1322.94221,204.274286 C1317.38881,182.321633 1297.29081,160.36898 1261.85486,160.36898 C1224.03888,160.36898 1194.42077,189.198367 1194.42077,229.400816 C1194.42077,269.338776 1224.56778,298.432653 1262.91265,298.432653 Z" id="sec"></path>
                </g>
            </g>
        </g>
    </g>
</svg>